<svg width="24" height="24" viewBox="0 0 24 24" fill="none" xmlns="http://www.w3.org/2000/svg">
<rect width="24" height="24" rx="4" fill="#EA2300"/>
<path d="M9.54892 10.9202C9.65226 7.65352 10.2923 6.77618 11.0623 6.77618C11.8463 6.77618 12.5956 7.48885 12.5696 10.9202H9.54892ZM5.33099 11.8835C5.33099 16.6415 10.1583 19.0409 14.335 16.9549L14.2057 16.8215C11.4723 17.7502 9.53566 15.7035 9.53566 11.8835C9.53566 11.7057 9.53698 11.5355 9.53965 11.3728H16.2236C16.2236 8.03951 14.3376 5.99951 11.0629 5.99951C9.52771 6.03594 8.06788 6.67226 6.99619 7.77212C5.92449 8.87197 5.32621 10.3479 5.3296 11.8835" fill="white"/>
<path d="M17.0091 17.8509C17.2286 17.8542 17.4464 17.8133 17.6497 17.7307C17.853 17.648 18.0375 17.5253 18.1923 17.3697C18.3471 17.2142 18.469 17.029 18.5507 16.8254C18.6324 16.6217 18.6722 16.4036 18.6678 16.1842C18.6664 15.8563 18.5678 15.5362 18.3845 15.2643C18.2013 14.9924 17.9416 14.7808 17.6383 14.6564C17.3349 14.5319 17.0014 14.5002 16.68 14.5651C16.3586 14.63 16.0637 14.7886 15.8324 15.021C15.6011 15.2535 15.4437 15.5492 15.3804 15.8709C15.317 16.1927 15.3504 16.5259 15.4763 16.8287C15.6022 17.1315 15.815 17.3901 16.0878 17.5721C16.3606 17.754 16.6812 17.851 17.0091 17.8509Z" fill="white"/>
</svg>
